<svg width="24" height="24" viewBox="0 0 24 24" fill="none" xmlns="http://www.w3.org/2000/svg">
<g clip-path="url(#clip0_505_39)">
<mask id="mask0_505_39" style="mask-type:luminance" maskUnits="userSpaceOnUse" x="0" y="0" width="24" height="24">
<mask id="mask1_505_39" style="mask-type:alpha" maskUnits="userSpaceOnUse" x="0" y="0" width="24" height="24">
<rect width="24" height="24" fill="white"/>
</mask>
<g mask="url(#mask1_505_39)">
<path d="M12.0023 16.2749C13.0817 16.2749 13.9984 15.859 14.7525 15.0273C15.5065 14.1955 15.8835 13.1856 15.8835 11.9974C15.8835 10.8093 15.5057 9.80019 14.7502 8.97017C13.9946 8.14016 13.0771 7.72515 11.9976 7.72515C10.9183 7.72515 10.0015 8.141 9.24749 8.97272C8.49345 9.80445 8.11643 10.8144 8.11643 12.0026C8.11643 13.1907 8.49423 14.1998 9.24981 15.0298C10.0054 15.8598 10.9229 16.2749 12.0023 16.2749ZM12 14.7164C11.3145 14.7164 10.7318 14.4523 10.252 13.9241C9.77213 13.3959 9.53221 12.7546 9.53221 12C9.53221 11.2454 9.77213 10.6041 10.252 10.0759C10.7318 9.54768 11.3145 9.28358 12 9.28358C12.6855 9.28358 13.2681 9.54768 13.748 10.0759C14.2278 10.6041 14.4677 11.2454 14.4677 12C14.4677 12.7546 14.2278 13.3959 13.748 13.9241C13.2681 14.4523 12.6855 14.7164 12 14.7164ZM12.0014 19.5833C9.69518 19.5833 7.59384 18.8937 5.69738 17.5144C3.8009 16.1352 2.38468 14.2971 1.44873 12C2.38468 9.70295 3.80043 7.8648 5.69596 6.48555C7.59149 5.10631 9.69235 4.41669 11.9986 4.41669C14.3048 4.41669 16.4061 5.10631 18.3026 6.48555C20.1991 7.8648 21.6153 9.70295 22.5512 12C21.6153 14.2971 20.1995 16.1352 18.304 17.5144C16.4085 18.8937 14.3076 19.5833 12.0014 19.5833ZM12 18.1119C13.9194 18.1119 15.6931 17.5649 17.3211 16.4708C18.9491 15.3767 20.2002 13.8864 21.0742 12C20.2002 10.1136 18.9491 8.62334 17.3211 7.52922C15.6931 6.43511 13.9194 5.88805 12 5.88805C10.0806 5.88805 8.3069 6.43511 6.67886 7.52922C5.05081 8.62334 3.79979 10.1136 2.92579 12C3.79979 13.8864 5.05081 15.3767 6.67886 16.4708C8.3069 17.5649 10.0806 18.1119 12 18.1119Z" fill="white"/>
</g>
</mask>
<g mask="url(#mask0_505_39)">
<rect width="24" height="24" fill="#6D7B88"/>
</g>
</g>
<defs>
<clipPath id="clip0_505_39">
<rect width="24" height="24" fill="white"/>
</clipPath>
</defs>
</svg>
