<svg width="24" height="24" viewBox="0 0 24 24" fill="none" xmlns="http://www.w3.org/2000/svg">
<g clip-path="url(#clip0_505_11)">
<mask id="mask0_505_11" style="mask-type:luminance" maskUnits="userSpaceOnUse" x="0" y="0" width="24" height="24">
<mask id="mask1_505_11" style="mask-type:alpha" maskUnits="userSpaceOnUse" x="0" y="0" width="24" height="24">
<rect width="24" height="24" fill="white"/>
</mask>
<g mask="url(#mask1_505_11)">
<path d="M15.6996 13.0125L14.442 11.7078C14.5106 10.9843 14.302 10.39 13.8162 9.92504C13.3304 9.46003 12.785 9.26309 12.1799 9.3342L10.9223 8.02948C11.0858 7.97477 11.2595 7.93374 11.4434 7.9064C11.6273 7.87904 11.8128 7.86536 12 7.86536C13.0809 7.86536 13.9984 8.25651 14.7525 9.03881C15.5065 9.82112 15.8835 10.773 15.8835 11.8945C15.8835 12.0887 15.8703 12.2846 15.844 12.4822C15.8176 12.6798 15.7695 12.8566 15.6996 13.0125ZM19.0987 16.5185L18.118 15.5215C18.7349 15.0237 19.2962 14.477 19.8017 13.8814C20.3073 13.2857 20.7314 12.6234 21.0742 11.8945C20.2344 10.0987 18.9963 8.68969 17.3597 7.66736C15.7231 6.64503 13.9365 6.13386 12 6.13386C11.5544 6.13386 11.1174 6.16053 10.689 6.21387C10.2605 6.26721 9.84068 6.35611 9.42939 6.48057L8.33396 5.34407C8.93244 5.11157 9.54048 4.95394 10.1581 4.8712C10.7757 4.78845 11.3896 4.74708 12 4.74708C14.2726 4.74708 16.3815 5.38304 18.3266 6.65496C20.2716 7.9269 21.6799 9.67341 22.5512 11.8945C22.1874 12.8122 21.7125 13.6485 21.1265 14.4034C20.5406 15.1584 19.8646 15.8634 19.0987 16.5185ZM19.3637 21.516L16.1802 18.1925C15.6015 18.4483 14.9572 18.6538 14.2473 18.809C13.5374 18.9643 12.7883 19.0419 12 19.0419C9.72074 19.0419 7.61188 18.4059 5.6734 17.134C3.73491 15.8621 2.32669 14.1155 1.44873 11.8945C1.84553 10.881 2.37876 9.95307 3.04844 9.11058C3.71811 8.26811 4.47413 7.52958 5.31649 6.89499L2.72613 4.22804L3.68119 3.23718L20.3188 20.5251L19.3637 21.516ZM6.27155 7.91248C5.62561 8.39664 4.99449 8.97586 4.3782 9.65013C3.76191 10.3244 3.27777 11.0725 2.92579 11.8945C3.76552 13.6902 5.00369 15.0993 6.6403 16.1216C8.27691 17.1439 10.0635 17.6551 12 17.6551C12.5708 17.6551 13.1396 17.6052 13.7065 17.5053C14.2733 17.4055 14.7611 17.2851 15.1698 17.1443L13.6373 15.5748C13.4105 15.6842 13.1475 15.7697 12.8483 15.8313C12.549 15.8928 12.2663 15.9236 12 15.9236C10.919 15.9236 10.0015 15.5324 9.24749 14.7501C8.49345 13.9678 8.11643 13.0159 8.11643 11.8945C8.11643 11.625 8.15467 11.3368 8.23113 11.0298C8.3076 10.7227 8.38142 10.4447 8.45259 10.1958L6.27155 7.91248Z" fill="white"/>
</g>
</mask>
<g mask="url(#mask0_505_11)">
<rect width="24" height="24" fill="#6D7B88"/>
</g>
</g>
<defs>
<clipPath id="clip0_505_11">
<rect width="24" height="24" fill="white"/>
</clipPath>
</defs>
</svg>
